<svg width="900" height="520" viewBox="0 0 900 520" fill="none" xmlns="http://www.w3.org/2000/svg">
  <rect width="900" height="520" rx="32" fill="#0A1322"/>
  <rect x="86" y="76" width="220" height="364" rx="16" fill="#132338"/>
  <rect x="340" y="76" width="220" height="364" rx="16" fill="#132338"/>
  <rect x="594" y="76" width="220" height="364" rx="16" fill="#132338"/>
  <g fill="#2A4968">
    <rect x="108" y="108" width="176" height="24" rx="6"/>
    <rect x="108" y="148" width="176" height="24" rx="6"/>
    <rect x="108" y="188" width="176" height="24" rx="6"/>
    <rect x="108" y="228" width="176" height="24" rx="6"/>
    <rect x="108" y="268" width="176" height="24" rx="6"/>
  </g>
  <g fill="#2A4968">
    <rect x="362" y="108" width="176" height="24" rx="6"/>
    <rect x="362" y="148" width="176" height="24" rx="6"/>
    <rect x="362" y="188" width="176" height="24" rx="6"/>
    <rect x="362" y="228" width="176" height="24" rx="6"/>
    <rect x="362" y="268" width="176" height="24" rx="6"/>
  </g>
  <g fill="#2A4968">
    <rect x="616" y="108" width="176" height="24" rx="6"/>
    <rect x="616" y="148" width="176" height="24" rx="6"/>
    <rect x="616" y="188" width="176" height="24" rx="6"/>
    <rect x="616" y="228" width="176" height="24" rx="6"/>
    <rect x="616" y="268" width="176" height="24" rx="6"/>
  </g>
  <path d="M200 380C280 320 620 320 700 380" stroke="#1EE3CF" stroke-width="8" stroke-linecap="round"/>
  <circle cx="200" cy="380" r="14" fill="#08A8EB"/>
  <circle cx="700" cy="380" r="14" fill="#08A8EB"/>
  <circle cx="450" cy="352" r="14" fill="#08A8EB"/>
</svg>